<?xml version="1.0" encoding="UTF-8" standalone="no"?>
<!-- Created with Inkscape (http://www.inkscape.org/) -->

<svg
   version="1.1"
   id="svg2"
   xml:space="preserve"
   width="230.94412"
   height="71.622665"
   viewBox="0 0 230.94412 71.622665"
   sodipodi:docname="Horizontal White Vector RGB.svg"
   inkscape:version="1.1.1 (c3084ef, 2021-09-22)"
   xmlns:inkscape="http://www.inkscape.org/namespaces/inkscape"
   xmlns:sodipodi="http://sodipodi.sourceforge.net/DTD/sodipodi-0.dtd"
   xmlns="http://www.w3.org/2000/svg"
   xmlns:svg="http://www.w3.org/2000/svg"><sodipodi:namedview
     id="namedview13"
     pagecolor="#ffffff"
     bordercolor="#666666"
     borderopacity="1.0"
     inkscape:pageshadow="2"
     inkscape:pageopacity="0.0"
     inkscape:pagecheckerboard="0"
     showgrid="false"
     fit-margin-top="0"
     fit-margin-left="0"
     fit-margin-right="0"
     fit-margin-bottom="0"
     inkscape:zoom="2.1701389"
     inkscape:cx="102.0672"
     inkscape:cy="144"
     inkscape:window-width="1296"
     inkscape:window-height="847"
     inkscape:window-x="0"
     inkscape:window-y="25"
     inkscape:window-maximized="0"
     inkscape:current-layer="svg2" /><defs
     id="defs6"><clipPath
       clipPathUnits="userSpaceOnUse"
       id="clipPath18"><path
         d="M 0,216 H 360 V 0 H 0 Z"
         id="path16" /></clipPath></defs><g
     id="g8"
     transform="matrix(1.3333333,0,0,-1.3333333,-124.52786,179.812)"><g
       id="g12"><g
         id="g14"
         clip-path="url(#clipPath18)"><g
           id="g20"
           transform="translate(114.2329,108)"><path
             d="M 0,0 V 0 L 2.78,-2.78 5.561,-5.56 8.341,-2.779 11.12,0 8.34,2.78 5.561,5.56 2.78,2.78 Z m -6.646,0 v 0 l 6.104,-6.103 6.103,-6.103 6.103,6.103 L 17.766,0 11.664,6.104 5.561,12.206 -0.543,6.103 Z m -1.807,0 v 0 l 7.007,-7.007 7.007,-7.006 7.006,7.007 L 19.573,0 12.566,7.007 5.561,14.013 -1.447,7.006 Z m 26.254,5.84 v 0 c 0,0.893 0.324,1.71 0.86,2.341 l -2.657,2.791 -0.308,0.323 c -1.651,-1.158 -3.945,-0.94 -5.332,0.583 -1.152,1.265 -1.342,3.062 -0.616,4.506 0.165,0.311 0.233,0.622 0.226,0.923 L 7.857,19.53 C 7.206,19.076 6.415,18.81 5.561,18.81 c -0.855,0 -1.646,0.266 -2.298,0.72 L 1.146,17.307 C 1.139,17.006 1.208,16.696 1.373,16.385 2.098,14.94 1.908,13.143 0.756,11.878 -0.631,10.355 -2.925,10.137 -4.576,11.295 L -4.884,10.972 -7.541,8.181 c 0.536,-0.631 0.86,-1.448 0.86,-2.341 0,-1.999 -1.621,-3.619 -3.619,-3.619 -0.828,0 -1.592,0.279 -2.202,0.747 L -15.329,0 l 2.827,-2.968 c 0.609,0.469 1.374,0.747 2.202,0.747 1.998,0 3.619,-1.62 3.619,-3.619 0,-0.892 -0.324,-1.71 -0.86,-2.341 l 2.657,-2.791 0.308,-0.324 c 1.651,1.159 3.945,0.941 5.332,-0.581 1.152,-1.266 1.342,-3.062 0.617,-4.508 -0.165,-0.31 -0.234,-0.621 -0.227,-0.922 l 2.117,-2.223 c 0.652,0.454 1.443,0.72 2.298,0.72 0.854,0 1.645,-0.266 2.296,-0.72 l 2.117,2.223 c 0.007,0.301 -0.061,0.612 -0.226,0.922 -0.726,1.446 -0.536,3.242 0.616,4.508 1.387,1.522 3.681,1.74 5.332,0.581 l 0.308,0.324 2.657,2.791 c -0.536,0.631 -0.86,1.449 -0.86,2.341 0,1.999 1.621,3.619 3.619,3.619 0.829,0 1.593,-0.279 2.204,-0.747 L 26.449,0 23.624,2.968 C 23.013,2.5 22.249,2.221 21.42,2.221 c -1.998,0 -3.619,1.62 -3.619,3.619 M -17.034,0 v 0 l 3.692,-3.878 c -0.366,-0.565 -0.577,-1.239 -0.577,-1.962 0,-1.999 1.62,-3.618 3.619,-3.618 0.659,0 1.277,0.176 1.809,0.483 l 2.754,-2.893 0.269,-0.281 c -1.169,-1.518 -1.122,-3.694 0.21,-5.156 1.138,-1.25 2.889,-1.621 4.393,-1.07 l -0.001,-0.002 c 1.675,-0.247 2.897,-1.205 2.643,-3.082 -0.156,-0.43 -0.241,-0.893 -0.241,-1.375 0,-2.223 1.801,-4.024 4.025,-4.024 2.222,0 4.023,1.801 4.023,4.024 0,0.482 -0.084,0.945 -0.24,1.375 -0.255,1.877 0.968,2.835 2.642,3.082 l -0.002,0.002 c 1.505,-0.551 3.256,-0.18 4.394,1.07 1.331,1.463 1.379,3.638 0.21,5.156 l 0.269,0.282 2.754,2.892 c 0.532,-0.307 1.15,-0.483 1.809,-0.483 1.999,0 3.62,1.619 3.62,3.618 0,0.723 -0.212,1.397 -0.578,1.962 L 28.154,0 24.462,3.878 c 0.366,0.565 0.578,1.239 0.578,1.962 0,1.998 -1.621,3.618 -3.62,3.618 -0.659,0 -1.277,-0.176 -1.809,-0.483 l -2.754,2.893 -0.269,0.282 c 1.17,1.518 1.121,3.692 -0.21,5.155 -1.138,1.25 -2.889,1.621 -4.394,1.07 l 0.002,0.002 c -1.674,0.247 -2.897,1.206 -2.642,3.082 0.156,0.43 0.24,0.893 0.24,1.375 0,2.223 -1.801,4.025 -4.023,4.025 -2.224,0 -4.025,-1.802 -4.025,-4.025 0,-0.482 0.085,-0.945 0.241,-1.375 0.254,-1.876 -0.968,-2.835 -2.643,-3.082 l 0.001,-0.002 c -1.504,0.551 -3.255,0.18 -4.393,-1.07 -1.332,-1.463 -1.379,-3.638 -0.21,-5.156 L -5.737,11.867 -8.491,8.975 c -0.532,0.307 -1.15,0.483 -1.809,0.483 -1.999,0 -3.619,-1.62 -3.619,-3.618 0,-0.723 0.211,-1.397 0.577,-1.962 z m -2.13,-16.376 v 0 c -0.924,0 -1.673,0.749 -1.673,1.673 0,0.923 0.749,1.672 1.673,1.672 0.924,0 1.672,-0.749 1.672,-1.672 0,-0.924 -0.748,-1.673 -1.672,-1.673 m 49.448,0 v 0 c 0.924,0 1.674,0.749 1.674,1.673 0,0.923 -0.75,1.672 -1.674,1.672 -0.924,0 -1.673,-0.749 -1.673,-1.672 0,-0.924 0.749,-1.673 1.673,-1.673 m -40.524,-3.358 v 0 c 0,1.087 0.881,1.968 1.968,1.968 1.087,0 1.968,-0.881 1.968,-1.968 0,-1.087 -0.881,-1.968 -1.968,-1.968 -1.087,0 -1.968,0.881 -1.968,1.968 m 31.6,0 v 0 c 0,1.087 -0.881,1.968 -1.968,1.968 -1.087,0 -1.968,-0.881 -1.968,-1.968 0,-1.087 0.881,-1.968 1.968,-1.968 1.087,0 1.968,0.881 1.968,1.968 m -36.72,6.634 v 0 c 1.216,0 2.201,0.986 2.201,2.201 0,1.214 -0.985,2.201 -2.201,2.201 -1.215,0 -2.2,-0.987 -2.2,-2.201 0,-1.215 0.985,-2.201 2.2,-2.201 m 41.84,26.2 v 0 c 1.215,0 2.201,-0.985 2.201,-2.201 0,-1.215 -0.986,-2.2 -2.201,-2.2 -1.215,0 -2.201,0.985 -2.201,2.2 0,1.216 0.986,2.201 2.201,2.201 m -45.644,3.276 v 0 c -0.924,0 -1.673,-0.748 -1.673,-1.672 0,-0.924 0.749,-1.673 1.673,-1.673 0.924,0 1.672,0.749 1.672,1.673 0,0.924 -0.748,1.672 -1.672,1.672 m 49.448,0 v 0 c -0.924,0 -1.673,-0.748 -1.673,-1.672 0,-0.924 0.749,-1.673 1.673,-1.673 0.924,0 1.674,0.749 1.674,1.673 0,0.924 -0.75,1.672 -1.674,1.672 m -40.524,3.358 v 0 c 0,-1.087 0.881,-1.967 1.968,-1.967 1.087,0 1.968,0.88 1.968,1.967 0,1.088 -0.881,1.968 -1.968,1.968 -1.087,0 -1.968,-0.88 -1.968,-1.968 m 31.6,0 v 0 c 0,-1.087 -0.881,-1.967 -1.968,-1.967 -1.087,0 -1.968,0.88 -1.968,1.967 0,1.088 0.881,1.968 1.968,1.968 1.087,0 1.968,-0.88 1.968,-1.968 M -15.36,13.1 v 0 c 1.216,0 2.201,-0.985 2.201,-2.201 0,-1.214 -0.985,-2.2 -2.201,-2.2 -1.215,0 -2.2,0.986 -2.2,2.2 0,1.216 0.985,2.201 2.2,2.201 m 41.84,-26.2 v 0 c -1.215,0 -2.201,0.986 -2.201,2.201 0,1.215 0.986,2.201 2.201,2.201 1.215,0 2.201,-0.986 2.201,-2.201 0,-1.215 -0.986,-2.201 -2.201,-2.201 M -1.567,0 1.997,3.563 5.561,7.127 9.124,3.563 12.687,0 9.124,-3.563 5.561,-7.127 1.997,-3.563 Z"
             style="fill:#ffffff;fill-opacity:1;fill-rule:evenodd;stroke:none"
             id="path22" /></g><g
           id="g24"
           transform="translate(240.085,110.5137)"><path
             d="M 0,0 V 0 5.355 H 16.975 C 19.634,5.355 20.8,4.226 20.8,2.623 20.8,0.911 19.452,0 16.61,0 Z m 16.975,-4.444 v 0 c 3.424,0 4.408,-1.712 4.408,-3.096 0,-1.385 -0.984,-2.769 -4.043,-2.769 H 0 v 5.865 z m -48.586,-5.391 v 0 h 4.007 l 11.838,14.279 v -19.416 h 5.1 V 9.945 h -5.063 c -1.931,0 -2.769,-0.983 -3.534,-1.93 L -29.608,-4.698 -39.954,8.015 c -0.766,0.947 -1.603,1.93 -3.533,1.93 h -5.064 v -24.917 h 5.1 V 4.444 Z m -20.7,-5.137 v 0 l -7.796,9.581 c -1.019,1.275 -2.367,2.551 -4.444,3.243 1.676,0.764 2.878,1.93 3.825,3.059 l 7.795,9.034 h -6.957 L -65.207,3.097 C -65.935,2.186 -67.83,0.036 -70.124,0.036 h -8.16 v 9.909 h -5.209 v -24.917 h 5.209 v 10.383 h 8.779 c 2.295,0 4.117,-2.15 4.808,-3.097 l 5.428,-7.286 z M 25.863,3.352 c 0,1.856 -0.583,6.593 -9.581,6.593 H -5.027 v -24.917 h 21.819 c 6.886,0 9.727,2.806 9.727,6.74 0,2.841 -1.494,4.991 -4.917,5.974 2.549,0.801 4.261,2.477 4.261,5.61"
             style="fill:#ffffff;fill-opacity:1;fill-rule:evenodd;stroke:none"
             id="path26" /></g></g></g></g></svg>
