<?xml version="1.0" encoding="UTF-8" standalone="no"?>
<!-- Created with Inkscape (http://www.inkscape.org/) -->

<svg
   version="1.1"
   id="svg1"
   width="516.72461"
   height="109.06836"
   viewBox="0 0 516.72461 109.06836"
   sodipodi:docname="Defense Innovation Unit.svg"
   inkscape:version="1.3.2 (091e20e, 2023-11-25, custom)"
   xmlns:inkscape="http://www.inkscape.org/namespaces/inkscape"
   xmlns:sodipodi="http://sodipodi.sourceforge.net/DTD/sodipodi-0.dtd"
   xmlns="http://www.w3.org/2000/svg"
   xmlns:svg="http://www.w3.org/2000/svg">
  <defs
     id="defs1" />
  <sodipodi:namedview
     id="namedview1"
     pagecolor="#ffffff"
     bordercolor="#000000"
     borderopacity="0.25"
     inkscape:showpageshadow="2"
     inkscape:pageopacity="0.0"
     inkscape:pagecheckerboard="0"
     inkscape:deskcolor="#d1d1d1"
     showgrid="false"
     inkscape:zoom="2.8284271"
     inkscape:cx="93.161318"
     inkscape:cy="64.523494"
     inkscape:window-width="1366"
     inkscape:window-height="745"
     inkscape:window-x="-8"
     inkscape:window-y="-8"
     inkscape:window-maximized="1"
     inkscape:current-layer="g1" />
  <g
     inkscape:groupmode="layer"
     inkscape:label="Image"
     id="g1"
     transform="translate(-0.11523438,-1.5859375)">
    <path
       id="rect1"
       style="display:inline;fill:#0d66bb;fill-opacity:1;stroke-width:2.05984"
       d="M 8.4726563 1.5859375 L 0.11523438 20.527344 L 35.492188 55.90625 L 0.17578125 90.412109 L 8.5371094 110.6543 L 66.632813 110.64258 C 66.590419 110.473 113.63137 104.27896 115.07422 56.173828 C 115.5681 39.707812 108.2099 28.872792 101.4375 20.818359 C 87.243229 3.9370751 67.060547 1.6015625 67.060547 1.6015625 L 8.4726563 1.5859375 z M 30.177734 22.332031 L 66.673828 22.333984 C 66.673828 22.333984 67.328697 22.47974 68.355469 22.78125 L 49.607422 41.328125 L 30.177734 22.332031 z M 72.470703 24.265625 C 73.614237 24.746799 74.857093 25.3441 76.169922 26.056641 L 54.841797 47.142578 L 52.103516 44.416016 L 72.470703 24.265625 z M 79.638672 28.179688 C 80.794461 28.971976 81.951773 29.837104 83.087891 30.837891 L 60.523438 52.802734 L 57.640625 49.929688 L 79.638672 28.179688 z M 85.888672 33.625 C 90.440604 38.712404 94.007813 45.936234 94.007813 56.125 C 94.007813 65.843928 90.432763 72.877214 85.744141 77.921875 L 63.324219 55.591797 L 85.888672 33.625 z M 49.041016 46.939453 L 52.033203 49.919922 L 49.162109 52.757812 L 46.289063 49.919922 L 49.041016 46.939453 z M 54.830078 52.707031 L 57.693359 55.558594 L 54.824219 58.351562 L 51.972656 55.535156 L 54.830078 52.707031 z M 43.607422 52.824219 L 46.351563 55.535156 L 43.5625 58.292969 L 40.988281 55.660156 L 43.607422 52.824219 z M 49.162109 58.310547 L 51.994141 61.107422 L 49.082031 63.941406 L 46.322266 61.119141 L 49.162109 58.310547 z M 60.494141 58.345703 L 82.886719 80.650391 C 81.871258 81.517278 80.826196 82.278305 79.779297 83 L 57.634766 61.128906 L 60.494141 58.345703 z M 54.804688 63.882812 L 76.345703 85.154297 C 74.963974 85.922808 73.6357 86.559216 72.361328 87.115234 L 52.074219 66.541016 L 54.804688 63.882812 z M 49.265625 69.320312 L 68.353516 88.675781 C 65.633469 89.587555 63.818359 89.929688 63.818359 89.929688 L 30.166016 89.916016 L 49.265625 69.320312 z " />
    <path
       id="path14"
       style="font-size:36.737px;font-family:'BB Torsos Pro';-inkscape-font-specification:'BB Torsos Pro';fill:#0d66bb;stroke-width:3.94962"
       d="m 292.36523,23.023438 c -3.62919,0 -6.57883,0.732654 -8.85156,2.197265 -2.26082,1.464615 -3.39258,3.280113 -3.39258,5.447266 0,2.155245 0.71469,3.845803 2.14258,5.072265 1.42789,1.226466 3.7008,2.072718 6.81836,2.53711 0.42837,0.07144 1.17145,0.190718 2.23047,0.357422 1.07092,0.154794 1.86139,0.268398 2.37305,0.339843 1.99902,0.321502 3.39239,0.719015 4.17773,1.195313 0.79724,0.476295 1.19531,1.227914 1.19531,2.251953 0,1.929003 -1.95065,2.892578 -5.85351,2.892578 -2.14184,0 -3.79113,-0.316172 -4.94531,-0.947265 -1.14232,-0.643004 -1.73561,-1.792135 -1.78321,-3.447266 v -0.03516 h -6.5332 v 0.03516 c 0.23798,5.953713 4.61132,8.925969 13.11914,8.914062 4.09329,0 7.19269,-0.715638 9.29883,-2.144531 2.10614,-1.440796 3.1582,-3.392583 3.1582,-5.857422 0,-2.024263 -0.69001,-3.656158 -2.07031,-4.894531 -1.3803,-1.25028 -3.39732,-2.071897 -6.05078,-2.464844 -0.26178,-0.04763 -0.95747,-0.147937 -2.08789,-0.302734 -1.11852,-0.166704 -2.01706,-0.299272 -2.69532,-0.394531 -2.30839,-0.357225 -3.88566,-0.779372 -4.73046,-1.267579 -0.84484,-0.488202 -1.26563,-1.171584 -1.26563,-2.052734 0,-0.881149 0.48717,-1.585446 1.46289,-2.109375 0.97573,-0.523924 2.35576,-0.785156 4.14063,-0.785156 1.95142,0 3.46797,0.310503 4.55078,0.929687 1.08282,0.607282 1.63635,1.690129 1.66015,3.25 v 0.03516 h 6.53321 v -0.03516 c -0.0952,-2.857782 -1.3084,-5.019759 -3.64063,-6.484375 -2.32032,-1.464605 -5.30791,-2.208605 -8.96094,-2.232421 z m -148.32226,0.412109 v 26.041015 h 12.76953 c 4.49431,0 7.94712,-1.071506 10.36328,-3.214843 2.42868,-2.143334 3.64453,-5.179928 3.64453,-9.109375 v -1.394532 c 0,-3.834187 -1.22092,-6.846144 -3.66211,-9.037109 -2.44116,-2.190965 -5.88896,-3.285156 -10.3457,-3.285156 z m 56.66992,0 v 0.835937 25.1875 0.01758 h 5.11133 v -0.01758 h 0.63476 V 39.082031 h 10.81446 v -4.751953 h -10.81446 v -6.037109 h 11.42969 v -4.857422 z m 22.52344,0 v 26.041015 h 20.07812 v -4.751953 h -14.2832 v -6 h 13.61133 v -4.644531 h -13.61133 v -5.859375 h 14.11914 v -4.785156 z m 25.67578,0 v 26.041015 h 6.49023 V 32.365234 l 12.00782,17.111328 h 7.46289 V 23.435547 h -6.49024 v 16.859375 l -11.7207,-16.859375 z m 61.51758,0 v 26.041015 h 19.76562 v -4.751953 h -14.06054 v -6 h 13.39843 v -4.644531 h -13.39843 v -5.859375 h 13.89843 v -4.785156 z m -134.25391,0.261719 v 26.041015 h 19.53125 v -4.75 h -13.89258 v -6.001953 h 13.23828 v -4.644531 h -13.23828 v -5.857422 h 13.73243 v -4.787109 z m -25.42969,4.523437 h 5.53907 c 5.12022,0 7.68164,2.512184 7.68164,7.537109 v 1.394532 c 0,2.560093 -0.62001,4.458898 -1.85938,5.697265 -1.23938,1.226464 -3.18079,1.839844 -5.82226,1.839844 h -5.53907 z m 84.35743,30.964844 c -4.61605,0 -8.24802,1.168048 -10.89844,3.505859 -2.63774,2.325827 -3.95703,5.432039 -3.95703,9.316406 v 1.402344 c 0,4.028233 1.29385,7.175528 3.88086,9.441406 2.59965,2.253894 6.26396,3.38086 10.99414,3.38086 4.61599,0 8.25681,-1.168045 10.91992,-3.50586 2.6631,-2.3498 3.99414,-5.456017 3.99414,-9.316406 v -1.402344 c 0,-3.824423 -1.33104,-6.917507 -3.99414,-9.279296 -2.66311,-2.361793 -6.31077,-3.542969 -10.93945,-3.542969 z m 125.45117,0 c -4.57496,0 -8.17591,1.168048 -10.80274,3.505859 -2.61422,2.325827 -3.92187,5.432039 -3.92187,9.316406 v 1.402344 c 0,4.028233 1.2837,7.175528 3.84765,9.441406 2.57655,2.253894 6.20842,3.38086 10.89649,3.38086 4.5749,0 8.1809,-1.168045 10.82031,-3.50586 2.63939,-2.3498 3.96094,-5.456017 3.96094,-9.316406 v -1.402344 c 0,-3.824423 -1.32155,-6.917507 -3.96094,-9.279296 -2.63941,-2.361793 -6.25237,-3.542969 -10.83984,-3.542969 z m 92.88476,0.113281 v 26.496094 h 6.4668 V 68.384766 l 11.96484,17.410156 h 7.4375 V 59.298828 H 472.8418 V 76.453125 L 461.16211,59.298828 Z m -31.58984,0.08789 v 16.623047 c 0,3.238881 1.19171,5.757872 3.57812,7.558593 2.39889,1.800726 5.50643,2.701172 9.32227,2.701172 3.9277,0 7.11589,-0.874573 9.56445,-2.626953 2.46103,-1.764465 3.69141,-4.195203 3.69141,-7.289062 V 59.386719 h -6.63672 v 16.585937 c 0,1.559017 -0.56621,2.822231 -1.69726,3.789063 -1.11865,0.966834 -2.69595,1.462161 -4.73438,1.486328 -2.02599,0.02417 -3.61039,-0.447232 -4.75391,-1.414063 -1.13108,-0.96683 -1.69726,-2.253969 -1.69726,-3.861328 V 59.386719 Z m 75.28516,0.08789 v 4.910157 h 6.96875 v 21.412109 h 5.74414 V 64.384766 h 6.99218 v -4.910157 z m -353.31446,0.125 v 26.21875 h 6.79102 v -26.21875 z m 12.13477,0 v 26.21875 h 6.46875 V 68.589844 l 11.96484,17.228515 h 7.4375 v -26.21875 h -6.46679 V 76.576172 L 163.67969,59.599609 Z m 32.67383,0 v 26.21875 h 6.46679 V 68.589844 l 11.96485,17.228515 h 7.4375 v -26.21875 h -6.4668 V 76.576172 L 196.35156,59.599609 Z m 62.03515,0 11.75586,26.21875 h 8.06446 l 11.77539,-26.21875 h -6.98047 l -8.63672,20.320313 -8.65625,-20.320313 z m 39.9961,0 -11.83204,26.21875 h 7.09571 l 2.1289,-5.08789 h 13.33594 l 2.01563,5.08789 h 7.20898 l -11.10937,-26.21875 z m 18.62304,0 v 4.890625 h 7.09961 v 21.326172 h 0.35938 v 0.002 h 5.05469 v -0.002 h 0.33203 V 64.490234 h 7.125 v -4.890625 z m 23.89258,0 v 26.21875 h 6.79102 v -26.21875 z m 48.12891,0 v 26.21875 h 6.46875 V 68.589844 l 11.96484,17.228515 h 7.4375 v -26.21875 h -6.4668 V 76.576172 L 389.0293,59.599609 Z m 103.89843,0.05273 v 26.142578 h 6.79102 V 59.652344 Z m -250.08007,4.40625 c 2.62501,0 4.61088,0.749446 5.95507,2.248047 1.35692,1.486608 2.03516,3.387338 2.03516,5.701171 v 1.402344 c 0,2.301848 -0.67334,4.202575 -2.01758,5.701172 -1.33155,1.498601 -3.32228,2.248047 -5.97265,2.248047 -2.67579,0 -4.67822,-0.72514 -6.00977,-2.175781 -1.31887,-1.462634 -1.97851,-3.387668 -1.97851,-5.773438 v -1.402344 c 0,-2.361789 0.65964,-4.275648 1.97851,-5.738281 1.33155,-1.47462 3.33398,-2.210937 6.00977,-2.210937 z m 125.45117,0 c 2.60169,0 4.56618,0.749446 5.89844,2.248047 1.3448,1.486608 2.01953,3.387338 2.01953,5.701171 v 1.402344 c 0,2.301848 -0.66773,4.202575 -2,5.701172 -1.3197,1.498601 -3.29114,2.248047 -5.91797,2.248047 -2.65197,0 -4.6393,-0.72514 -5.95899,-2.175781 -1.30709,-1.462634 -1.95898,-3.387668 -1.95898,-5.773438 v -1.402344 c 0,-2.361789 0.65189,-4.275648 1.95898,-5.738281 1.31969,-1.47462 3.30702,-2.210937 5.95899,-2.210937 z m -65.6543,0.396484 4.58399,11.832031 h -9.45313 z" />
  </g>
</svg>
